<svg width="848" height="827" viewBox="0 0 848 827" fill="none" xmlns="http://www.w3.org/2000/svg">
<g filter="url(#filter0_d_144_134)">
<path d="M88.6366 373.793L219.784 504.928C238.099 523.241 262.939 533.529 288.84 533.529H357.881C383.782 533.529 408.622 543.818 426.937 562.132L584.214 719.396C602.528 737.71 627.367 747.999 653.267 748H1033.03C1076.95 748 1112.55 712.402 1112.55 668.488C1112.55 658.046 1110.49 647.707 1106.49 638.059C1102.5 628.412 1096.64 619.647 1089.26 612.264L1004.88 527.896C993.131 516.145 993.13 497.093 1004.88 485.34C1007.67 482.546 1010.99 480.329 1014.64 478.817C1018.29 477.304 1022.21 476.526 1026.16 476.526C1042.78 476.526 1056.25 463.053 1056.25 446.434C1056.25 438.453 1053.08 430.798 1047.44 425.155L856.667 234.398C838.351 216.084 813.511 205.795 787.611 205.795H558.647C532.746 205.795 507.906 195.507 489.591 177.193L455.162 142.766C436.846 124.453 412.007 114.165 386.107 114.165H156.449C125.423 114.165 100.27 139.317 100.27 170.343C100.27 177.721 101.724 185.027 104.547 191.843C107.371 198.659 111.509 204.852 116.727 210.069L144.816 238.157C160.33 253.67 160.331 278.824 144.818 294.338C141.129 298.027 136.75 300.954 131.93 302.95C127.11 304.947 121.944 305.975 116.727 305.975C94.7865 305.975 77 323.76 77 345.7C76.9999 350.917 78.0276 356.083 80.0242 360.903C82.0208 365.723 84.9473 370.103 88.6366 373.792V373.793Z" fill="black"/>
</g>
<path d="M88.6366 373.793L219.784 504.928C238.099 523.241 262.939 533.529 288.84 533.529H357.881C383.782 533.529 408.622 543.818 426.937 562.132L584.214 719.396C602.528 737.71 627.367 747.999 653.267 748H1033.03C1076.95 748 1112.55 712.402 1112.55 668.488C1112.55 658.046 1110.49 647.707 1106.49 638.059C1102.5 628.412 1096.64 619.647 1089.26 612.264L1004.88 527.896C993.131 516.145 993.13 497.093 1004.88 485.34C1007.67 482.546 1010.99 480.329 1014.64 478.817C1018.29 477.304 1022.21 476.526 1026.16 476.526C1042.78 476.526 1056.25 463.053 1056.25 446.434C1056.25 438.453 1053.08 430.798 1047.44 425.155L856.667 234.398C838.351 216.084 813.511 205.795 787.611 205.795H558.647C532.746 205.795 507.906 195.507 489.591 177.193L455.162 142.766C436.846 124.453 412.007 114.165 386.107 114.165H156.449C125.423 114.165 100.27 139.317 100.27 170.343C100.27 177.721 101.724 185.027 104.547 191.843C107.371 198.659 111.509 204.852 116.727 210.069L144.816 238.157C160.33 253.67 160.331 278.824 144.818 294.338C141.129 298.027 136.75 300.954 131.93 302.95C127.11 304.947 121.944 305.975 116.727 305.975C94.7865 305.975 77 323.76 77 345.7C76.9999 350.917 78.0276 356.083 80.0242 360.903C82.0208 365.723 84.9473 370.103 88.6366 373.792V373.793Z" fill="#2D314D"/>
<g filter="url(#filter1_d_144_134)">
<path fill-rule="evenodd" clip-rule="evenodd" d="M223.412 73.9663L354.56 205.101C372.875 223.415 397.715 233.703 423.615 233.703H492.657C518.557 233.703 543.397 243.991 561.712 262.305L718.99 419.57C737.304 437.883 762.143 448.172 788.042 448.173H1167.81C1211.72 448.173 1247.32 412.575 1247.32 368.662C1247.32 358.22 1245.27 347.88 1241.27 338.233C1237.27 328.586 1231.42 319.82 1224.03 312.437L1139.66 228.069C1127.91 216.319 1127.91 197.266 1139.66 185.514C1142.45 182.719 1145.77 180.502 1149.42 178.99C1153.07 177.478 1156.98 176.699 1160.94 176.699C1177.55 176.699 1191.03 163.227 1191.03 146.607C1191.03 138.626 1187.86 130.971 1182.21 125.328L991.442 -65.4287C973.127 -83.7427 948.287 -94.0313 922.386 -94.0314H693.422C667.522 -94.0315 642.682 -104.32 624.366 -122.634L589.937 -157.06C571.622 -175.374 546.783 -185.662 520.882 -185.662H291.225C260.198 -185.662 235.046 -160.51 235.046 -129.483C235.046 -122.105 236.499 -114.8 239.323 -107.984C242.146 -101.168 246.285 -94.9743 251.502 -89.7576L279.591 -61.6696C295.106 -46.1568 295.107 -21.0026 279.594 -5.48875C275.905 -1.79947 271.526 1.12704 266.706 3.12366C261.886 5.12029 256.719 6.1479 251.502 6.14786C229.562 6.14786 211.776 23.9333 211.776 45.8734C211.776 51.0906 212.803 56.2567 214.8 61.0768C216.796 65.8968 219.723 70.2764 223.412 73.9653V73.9663Z" fill="url(#paint0_linear_144_134)"/>
</g>
<defs>
<filter id="filter0_d_144_134" x="0" y="39.1646" width="1189.55" height="787.835" filterUnits="userSpaceOnUse" color-interpolation-filters="sRGB">
<feFlood flood-opacity="0" result="BackgroundImageFix"/>
<feColorMatrix in="SourceAlpha" type="matrix" values="0 0 0 0 0 0 0 0 0 0 0 0 0 0 0 0 0 0 127 0" result="hardAlpha"/>
<feOffset dy="2"/>
<feGaussianBlur stdDeviation="38.5"/>
<feColorMatrix type="matrix" values="0 0 0 0 0 0 0 0 0 0 0 0 0 0 0 0 0 0 0.0240111 0"/>
<feBlend mode="normal" in2="BackgroundImageFix" result="effect1_dropShadow_144_134"/>
<feBlend mode="normal" in="SourceGraphic" in2="effect1_dropShadow_144_134" result="shape"/>
</filter>
<filter id="filter1_d_144_134" x="207.776" y="-185.662" width="1043.55" height="641.835" filterUnits="userSpaceOnUse" color-interpolation-filters="sRGB">
<feFlood flood-opacity="0" result="BackgroundImageFix"/>
<feColorMatrix in="SourceAlpha" type="matrix" values="0 0 0 0 0 0 0 0 0 0 0 0 0 0 0 0 0 0 127 0" result="hardAlpha"/>
<feOffset dy="4"/>
<feGaussianBlur stdDeviation="2"/>
<feComposite in2="hardAlpha" operator="out"/>
<feColorMatrix type="matrix" values="0 0 0 0 0 0 0 0 0 0 0 0 0 0 0 0 0 0 0.25 0"/>
<feBlend mode="normal" in2="BackgroundImageFix" result="effect1_dropShadow_144_134"/>
<feBlend mode="normal" in="SourceGraphic" in2="effect1_dropShadow_144_134" result="shape"/>
</filter>
<linearGradient id="paint0_linear_144_134" x1="211.776" y1="43.4504" x2="1133.32" y2="460.58" gradientUnits="userSpaceOnUse">
<stop stop-color="#33D35E"/>
<stop offset="1" stop-color="#2AB6D9"/>
</linearGradient>
</defs>
</svg>
